<svg xmlns="http://www.w3.org/2000/svg" viewBox="0 0 64 64" fill="none">
  <rect width="64" height="64" rx="14" fill="#0d1117"/>
  <!-- Game controller body -->
  <rect x="8" y="20" width="48" height="24" rx="12" fill="#1a2a3a" stroke="#39d353" stroke-width="1.5"/>
  <!-- D-pad left -->
  <rect x="18" y="29" width="4" height="6" rx="1" fill="#39d353" opacity="0.9"/>
  <rect x="15" y="32" width="10" height="4" rx="1" fill="#39d353" opacity="0.9"/>
  <!-- Buttons right -->
  <circle cx="47" cy="30" r="2.5" fill="#00d4ff" opacity="0.9"/>
  <circle cx="42" cy="35" r="2.5" fill="#ff6b35" opacity="0.9"/>
  <circle cx="47" cy="38" r="2.5" fill="#39d353" opacity="0.9"/>
  <circle cx="52" cy="33" r="2.5" fill="#c678dd" opacity="0.9"/>
  <!-- Select/Start center buttons -->
  <rect x="28" y="31" width="7" height="2.5" rx="1.2" fill="#4a5568"/>
  <rect x="29" y="31" width="5" height="2.5" rx="1.2" fill="#2d3748"/>
  <!-- Handles -->
  <path d="M8 36 Q8 50 20 50 Q24 50 24 44" stroke="#1a2a3a" stroke-width="5" fill="none" stroke-linecap="round"/>
  <path d="M56 36 Q56 50 44 50 Q40 50 40 44" stroke="#1a2a3a" stroke-width="5" fill="none" stroke-linecap="round"/>
  <path d="M8 36 Q8 50 20 50 Q24 50 24 44" stroke="#39d353" stroke-width="1.5" fill="none" stroke-linecap="round" opacity="0.6"/>
  <path d="M56 36 Q56 50 44 50 Q40 50 40 44" stroke="#39d353" stroke-width="1.5" fill="none" stroke-linecap="round" opacity="0.6"/>
</svg>
